<mxfile host="app.diagrams.net" modified="2023-12-28T04:54:03.288Z" agent="Mozilla/5.0 (Windows NT 10.0; Win64; x64) AppleWebKit/537.36 (KHTML, like Gecko) Chrome/120.0.0.0 Safari/537.36 Edg/120.0.0.0" etag="7Wh65rOyvZ8BUycmbjL4" version="22.1.13" type="github">
  <diagram name="第 1 页" id="NfqD_NLgWQrUJirSriLM">
    <mxGraphModel dx="2249" dy="1857" grid="1" gridSize="10" guides="1" tooltips="1" connect="1" arrows="1" fold="1" page="1" pageScale="1" pageWidth="827" pageHeight="1169" math="1" shadow="0">
      <root>
        <mxCell id="0" />
        <mxCell id="1" parent="0" />
        <mxCell id="ChySaNeK8sHxJKpHQxHX-1" value="$$V(x_{t})=\max_{\{a_{t+k}\}_{k=0}^{\infty}}\sum_{k=0}^{\infty}\beta^{k}F(x_{t+k},a_{t+k})$$" style="rounded=0;whiteSpace=wrap;html=1;fillColor=none;fontFamily=Times New Roman;fontSize=20;fontStyle=0" parent="1" vertex="1">
          <mxGeometry x="-400" y="80" width="340" height="80" as="geometry" />
        </mxCell>
        <mxCell id="oNS_FfJaaEhKdy3fLbMn-1" value="" style="shape=curlyBracket;whiteSpace=wrap;html=1;rounded=1;labelPosition=left;verticalLabelPosition=middle;align=right;verticalAlign=middle;direction=south;fontStyle=0" vertex="1" parent="1">
          <mxGeometry x="-760" y="170" width="840" height="50" as="geometry" />
        </mxCell>
        <mxCell id="oNS_FfJaaEhKdy3fLbMn-2" value="$$F(x_t,a_t)$$" style="rounded=0;whiteSpace=wrap;html=1;fillColor=none;fontSize=20;fontFamily=Times New Roman;fontStyle=0" vertex="1" parent="1">
          <mxGeometry x="-800" y="240" width="120" height="40" as="geometry" />
        </mxCell>
        <mxCell id="oNS_FfJaaEhKdy3fLbMn-3" value="$$a_t$$" style="ellipse;whiteSpace=wrap;html=1;fillColor=none;fontFamily=Times New Roman;fontSize=20;fontStyle=0" vertex="1" parent="1">
          <mxGeometry x="-640" y="240" width="80" height="40" as="geometry" />
        </mxCell>
        <mxCell id="oNS_FfJaaEhKdy3fLbMn-6" value="$$a_{t+1}$$" style="ellipse;whiteSpace=wrap;html=1;fillColor=none;fontFamily=Times New Roman;fontStyle=0;fontSize=20;" vertex="1" parent="1">
          <mxGeometry x="-360" y="240" width="80" height="40" as="geometry" />
        </mxCell>
        <mxCell id="oNS_FfJaaEhKdy3fLbMn-7" value="$$a_{t+2}$$" style="ellipse;whiteSpace=wrap;html=1;fillColor=none;fontSize=20;fontFamily=Times New Roman;fontStyle=0" vertex="1" parent="1">
          <mxGeometry x="-80" y="240" width="80" height="40" as="geometry" />
        </mxCell>
        <mxCell id="oNS_FfJaaEhKdy3fLbMn-8" value="`x_{t+1}`" style="ellipse;whiteSpace=wrap;html=1;fillColor=none;fontFamily=Times New Roman;fontSize=20;fontStyle=0" vertex="1" parent="1">
          <mxGeometry x="-520" y="320" width="80" height="40" as="geometry" />
        </mxCell>
        <mxCell id="oNS_FfJaaEhKdy3fLbMn-9" value="$$x_t$$" style="ellipse;whiteSpace=wrap;html=1;fillColor=none;fontFamily=Times New Roman;fontSize=20;fontStyle=0" vertex="1" parent="1">
          <mxGeometry x="-800" y="320" width="80" height="40" as="geometry" />
        </mxCell>
        <mxCell id="oNS_FfJaaEhKdy3fLbMn-10" value="$$F(x_{t+1},a_{t+1}&lt;br&gt;)$$" style="rounded=0;whiteSpace=wrap;html=1;fillColor=none;fontSize=20;fontFamily=Times New Roman;fontStyle=0" vertex="1" parent="1">
          <mxGeometry x="-520" y="240" width="120" height="40" as="geometry" />
        </mxCell>
        <mxCell id="oNS_FfJaaEhKdy3fLbMn-11" value="$$F(x_{t+2},a_{t+2}&lt;br style=&quot;border-color: var(--border-color);&quot;&gt;)$$" style="rounded=0;whiteSpace=wrap;html=1;fillColor=none;fontSize=20;fontFamily=Times New Roman;fontStyle=0" vertex="1" parent="1">
          <mxGeometry x="-240" y="240" width="120" height="40" as="geometry" />
        </mxCell>
        <mxCell id="oNS_FfJaaEhKdy3fLbMn-12" value="`T(x_t,a_t)`" style="rounded=0;whiteSpace=wrap;html=1;fillColor=none;fontSize=20;fontFamily=Times New Roman;fontStyle=0" vertex="1" parent="1">
          <mxGeometry x="-680" y="320" width="120" height="40" as="geometry" />
        </mxCell>
        <mxCell id="oNS_FfJaaEhKdy3fLbMn-13" value="`x_t`" style="ellipse;whiteSpace=wrap;html=1;fillColor=none;fontFamily=Times New Roman;fontSize=20;fontStyle=0" vertex="1" parent="1">
          <mxGeometry x="-240" y="320" width="80" height="40" as="geometry" />
        </mxCell>
        <mxCell id="oNS_FfJaaEhKdy3fLbMn-15" value="`T(x_{t+1},a_{t+1})`" style="rounded=0;whiteSpace=wrap;html=1;fillColor=none;fontSize=20;fontFamily=Times New Roman;fontStyle=0" vertex="1" parent="1">
          <mxGeometry x="-400" y="320" width="120" height="40" as="geometry" />
        </mxCell>
        <mxCell id="oNS_FfJaaEhKdy3fLbMn-16" value="`T(x_{t+2},a_{t+2})`" style="rounded=0;whiteSpace=wrap;html=1;fillColor=none;fontSize=20;fontFamily=Times New Roman;fontStyle=0" vertex="1" parent="1">
          <mxGeometry x="-120" y="320" width="120" height="40" as="geometry" />
        </mxCell>
      </root>
    </mxGraphModel>
  </diagram>
</mxfile>
